<svg width="18" height="19" viewBox="0 0 18 19" fill="none" xmlns="http://www.w3.org/2000/svg">
<path d="M9 18.5C6.48771 18.5 4.35943 17.6287 2.61514 15.8861C0.871714 14.1427 0 12.0153 0 9.50386C0 6.99243 0.871714 4.86415 2.61514 3.11901C4.35857 1.37387 6.48685 0.500866 9 0.500009C10.5283 0.500009 11.9593 0.863009 13.293 1.58901C14.6259 2.31501 15.7003 3.32858 16.5163 4.62972V1.14287C16.5163 0.960294 16.578 0.807723 16.7014 0.685152C16.8248 0.56258 16.9778 0.500866 17.1604 0.500009C17.343 0.499152 17.4956 0.560866 17.6181 0.685152C17.7407 0.809437 17.802 0.962009 17.802 1.14287V6.18672C17.802 6.48072 17.7026 6.72758 17.5037 6.92729C17.3048 7.127 17.058 7.22643 16.7631 7.22558H11.7193C11.5376 7.22558 11.385 7.16386 11.2616 7.04043C11.1381 6.91701 11.0764 6.76401 11.0764 6.58143C11.0764 6.39886 11.1381 6.24629 11.2616 6.12372C11.385 6.00115 11.5376 5.93986 11.7193 5.93986H15.8336C15.165 4.65758 14.2234 3.64444 13.0089 2.90044C11.796 2.15729 10.4597 1.78572 9 1.78572C6.85714 1.78572 5.03571 2.53572 3.53571 4.03572C2.03571 5.53572 1.28571 7.35715 1.28571 9.5C1.28571 11.6429 2.03571 13.4643 3.53571 14.9643C5.03571 16.4643 6.85714 17.2143 9 17.2143C10.5317 17.2143 11.9336 16.7994 13.2056 15.9697C14.4784 15.1391 15.4221 14.0364 16.0367 12.6616C16.1096 12.4936 16.227 12.3757 16.389 12.308C16.5518 12.2394 16.7181 12.2339 16.8878 12.2913C17.0687 12.3487 17.1887 12.4666 17.2479 12.6449C17.307 12.8231 17.3006 12.9963 17.2286 13.1643C16.5146 14.78 15.4174 16.073 13.9371 17.0433C12.4569 18.0136 10.8111 18.4991 9 18.5Z" fill="black"/>
</svg>
