<svg width="18" height="18" viewBox="0 0 18 18" fill="none" xmlns="http://www.w3.org/2000/svg">
<path fill-rule="evenodd" clip-rule="evenodd" d="M8.12072 7C7.62159 7 7.19889 7.36805 7.13022 7.86243L6.158 14.8624C6.0745 15.4636 6.54151 16 7.14849 16H13.703C14.917 16 15.851 14.9273 15.684 13.7249L14.9896 8.72486C14.8522 7.7361 14.0068 7 13.0086 7H8.12072ZM9.89443 11.2111C9.4835 12.033 10.0811 13 11 13C11.9189 13 12.5165 12.033 12.1056 11.2111L11.4721 9.94427C11.2776 9.55521 10.7224 9.55521 10.5279 9.94427L9.89443 11.2111Z" fill="black"/>
<path d="M5.11294 7.5H12.8871C13.6265 7.5 14.2556 8.03882 14.3692 8.76944L15.147 13.7694C15.2885 14.6788 14.5852 15.5 13.6648 15.5H4.33516C3.41482 15.5 2.71153 14.6788 2.85299 13.7694L3.63077 8.76944C3.74442 8.03882 4.37353 7.5 5.11294 7.5Z" stroke="black"/>
<path fill-rule="evenodd" clip-rule="evenodd" d="M17 4H18C18 4.35064 17.9398 4.68722 17.8293 5C17.4175 6.16519 16.3062 7 15 7H14H9H3C1.69378 7 0.582542 6.16519 0.170706 5C0.0601543 4.68722 0 4.35064 0 4H1H9H17ZM9 5H1.26756C1.61337 5.5978 2.25972 6 3 6H9V5Z" fill="black"/>
</svg>
