<svg width="24" height="24" viewBox="0 0 24 24" fill="none" xmlns="http://www.w3.org/2000/svg">
<path d="M14 15H19C20.1046 15 21 15.8954 21 17V19C21 20.1046 20.1046 21 19 21H14V15Z" fill="black"/>
<path d="M4 15.5H20C20.8284 15.5 21.5 16.1716 21.5 17V19C21.5 19.8284 20.8284 20.5 20 20.5H4C3.17157 20.5 2.5 19.8284 2.5 19V17C2.5 16.1716 3.17157 15.5 4 15.5Z" stroke="black"/>
<path d="M11.5713 4.5H12.4287C13.2029 4.5 13.8499 5.08918 13.9222 5.85999L14.4509 11.5H9.54907L10.0778 5.85999C10.1501 5.08918 10.7971 4.5 11.5713 4.5Z" stroke="black"/>
<path d="M12 4.79751C12 4.35706 12.3571 4 12.7975 4V4C13.6207 4 14.3087 4.62651 14.3856 5.44615L15 12H12V4.79751Z" fill="black"/>
<path d="M8 11.5H16C16.8284 11.5 17.5 12.1716 17.5 13V15C17.5 15.2761 17.2761 15.5 17 15.5H7C6.72386 15.5 6.5 15.2761 6.5 15V13C6.5 12.1716 7.17157 11.5 8 11.5Z" stroke="black"/>
<path d="M13 12C13 11.4477 13.4477 11 14 11H16C16.5523 11 17 11.4477 17 12V15H13V12Z" fill="black"/>
</svg>
