<svg width="18" height="18" viewBox="0 0 18 18" fill="none" xmlns="http://www.w3.org/2000/svg">
<path fill-rule="evenodd" clip-rule="evenodd" d="M17 4H10V14H16C17.1046 14 18 13.1046 18 12V5C18 4.44772 17.5523 4 17 4ZM15.5 5H12.5V6C12.5 6.55228 12.9477 7 13.5 7H14.5C15.0523 7 15.5 6.55228 15.5 6V5Z" fill="black"/>
<path fill-rule="evenodd" clip-rule="evenodd" d="M10 5H1V12C1 12.5523 1.44772 13 2 13H10V5ZM1 4C0.447715 4 0 4.44772 0 5V12C0 13.1046 0.895431 14 2 14H10H11V13V5V4H10H1Z" fill="black"/>
</svg>
