<svg width="60" height="36" viewBox="0 0 60 36" fill="none" xmlns="http://www.w3.org/2000/svg">
<path fill-rule="evenodd" clip-rule="evenodd" d="M12 12V15C12 16.666 13.0185 18.0941 14.4668 18.6956L14.8731 26.2158C14.9877 28.338 16.742 30 18.8673 30H41.1327C43.258 30 45.0123 28.338 45.1269 26.2158L45.5332 18.6956C46.9815 18.0941 48 16.666 48 15V12H46V14V15C46 16.1046 45.1046 17 44 17H43.6219L43.1298 26.1079C43.0725 27.169 42.1954 28 41.1327 28H18.8673C17.8046 28 16.9275 27.169 16.8702 26.1079L16.3781 17H16C14.8954 17 14 16.1046 14 15V14V12H12Z" fill="black"/>
<path fill-rule="evenodd" clip-rule="evenodd" d="M18 24C18 23.4477 18.4477 23 19 23H22H38H41C41.5523 23 42 23.4477 42 24C42 24.5523 41.5523 25 41 25H39V26C39 26.5523 38.5523 27 38 27C37.4477 27 37 26.5523 37 26V25H23V26C23 26.5523 22.5523 27 22 27C21.4477 27 21 26.5523 21 26V25H19C18.4477 25 18 24.5523 18 24Z" fill="black"/>
<rect x="8" y="9" width="44" height="2" rx="1" fill="black"/>
</svg>
