<svg width="24" height="24" viewBox="0 0 24 24" fill="none" xmlns="http://www.w3.org/2000/svg">
<path d="M6.59054 17.1341L6.04297 10.5H17.9715L17.6056 17.0938C17.5615 17.8887 16.904 18.5107 16.1079 18.5107H8.08545C7.30486 18.5107 6.65475 17.912 6.59054 17.1341Z" stroke="black"/>
<path d="M12 10L18.5 10L18.1049 17.1109C18.0461 18.1708 17.1695 19 16.108 19H12L12 10Z" fill="black"/>
<path d="M4.5 5.5H19.5V9C19.5 9.82843 18.8284 10.5 18 10.5H6C5.17157 10.5 4.5 9.82843 4.5 9V5.5Z" stroke="black"/>
<path d="M13 5H20V9C20 10.1046 19.1046 11 18 11H13V5Z" fill="black"/>
<rect x="2" y="5" width="20" height="1.11111" rx="0.555556" fill="black"/>
</svg>
