<svg width="24" height="24" viewBox="0 0 24 24" fill="none" xmlns="http://www.w3.org/2000/svg">
<path fill-rule="evenodd" clip-rule="evenodd" d="M11.1207 9C10.6216 9 10.1989 9.36805 10.1302 9.86243L9.158 16.8624C9.0745 17.4636 9.54151 18 10.1485 18H16.703C17.917 18 18.851 16.9273 18.684 15.7249L17.9896 10.7249C17.8522 9.7361 17.0068 9 16.0086 9H11.1207ZM12.9938 13.4568C12.5372 14.37 13.2013 15.4444 14.2222 15.4444C15.2432 15.4444 15.9072 14.37 15.4506 13.4568L14.7468 12.0492C14.5307 11.6169 13.9138 11.6169 13.6976 12.0492L12.9938 13.4568Z" fill="black"/>
<path d="M8.11294 9.5H15.8871C16.6265 9.5 17.2556 10.0388 17.3692 10.7694L18.147 15.7694C18.2885 16.6788 17.5852 17.5 16.6648 17.5H7.33516C6.41482 17.5 5.71153 16.6788 5.85299 15.7694L6.63077 10.7694C6.74442 10.0388 7.37353 9.5 8.11294 9.5Z" stroke="black"/>
<path fill-rule="evenodd" clip-rule="evenodd" d="M21 6H22C22 6.35064 21.9398 6.68722 21.8293 7C21.4175 8.16519 20.3062 9 19 9H18H12H5C3.69378 9 2.58254 8.16519 2.17071 7C2.06015 6.68722 2 6.35064 2 6H3H12H21ZM12 7H3.26756C3.61337 7.5978 4.25972 8 5 8H12V7Z" fill="black"/>
</svg>
