<svg width="24" height="24" viewBox="0 0 24 24" fill="none" xmlns="http://www.w3.org/2000/svg">
<path fill-rule="evenodd" clip-rule="evenodd" d="M21 11H13V17H20C21.1046 17 22 16.1046 22 15V12C22 11.4477 21.5523 11 21 11ZM20 12H15L15.4058 13.2983C15.5362 13.7158 15.9229 14 16.3602 14H18.6399C19.0772 14 19.4639 13.7158 19.5943 13.2983L20 12Z" fill="black"/>
<path fill-rule="evenodd" clip-rule="evenodd" d="M10.2794 8H3V16C3 16.5523 3.44772 17 4 17H13V11.048L10.2794 8ZM3 7C2.44772 7 2 7.44771 2 8V16C2 17.1046 2.89543 18 4 18H13H14V17V11.048C14 10.8024 13.9096 10.5654 13.746 10.3821L11.0255 7.33411C10.8358 7.12154 10.5644 7 10.2794 7H3Z" fill="black"/>
<path fill-rule="evenodd" clip-rule="evenodd" d="M18.3161 8H3V16C3 16.5523 3.44772 17 4 17H20C20.5523 17 21 16.5523 21 16L21 11.0445L18.3161 8ZM3 7C2.44772 7 2 7.44771 2 8V16C2 17.1046 2.89543 18 4 18H20C21.1046 18 22 17.1046 22 16V11.0445C22 10.801 21.9112 10.5659 21.7501 10.3832L19.0663 7.33872C18.8764 7.12337 18.6032 7 18.3161 7H3Z" fill="black"/>
</svg>
