<svg width="24" height="24" viewBox="0 0 24 24" fill="none" xmlns="http://www.w3.org/2000/svg">
<path fill-rule="evenodd" clip-rule="evenodd" d="M19 7H12.4706V17H18C19.1046 17 20 16.1046 20 15V8C20 7.44772 19.5523 7 19 7ZM18.1176 8H14.3529V9C14.3529 9.55228 14.8007 10 15.3529 10H17.1176C17.6699 10 18.1176 9.55228 18.1176 9V8Z" fill="black"/>
<path fill-rule="evenodd" clip-rule="evenodd" d="M12.4118 8H5V15C5 15.5523 5.44772 16 6 16H12.4118V8ZM5 7C4.44772 7 4 7.44772 4 8V15C4 16.1046 4.89543 17 6 17H12.4118H13.4118V16V8V7H12.4118H5Z" fill="black"/>
</svg>
