<svg width="24" height="24" viewBox="0 0 24 24" fill="none" xmlns="http://www.w3.org/2000/svg">
<path d="M14 13H18C19.1046 13 20 13.8954 20 15V16C20 17.1046 19.1046 18 18 18H14V13Z" fill="black"/>
<path d="M6 13.5H18C18.8284 13.5 19.5 14.1716 19.5 15V16C19.5 16.8284 18.8284 17.5 18 17.5H6C5.17157 17.5 4.5 16.8284 4.5 16V15C4.5 14.1716 5.17157 13.5 6 13.5Z" stroke="black"/>
<path d="M11.5713 6.5H12.4287C13.2029 6.5 13.8499 7.08918 13.9222 7.85999L14.4509 13.5H9.54907L10.0778 7.85999C10.1501 7.08918 10.7971 6.5 11.5713 6.5Z" stroke="black"/>
<path d="M12 6.79751C12 6.35706 12.3571 6 12.7975 6V6C13.6207 6 14.3087 6.62651 14.3856 7.44615L15 14H12V6.79751Z" fill="black"/>
</svg>
