<svg width="24" height="24" viewBox="0 0 24 24" fill="none" xmlns="http://www.w3.org/2000/svg">
<path d="M7.89724 15.1424L7.54994 11.5H16.4669L16.2364 15.096C16.1858 15.8855 15.5307 16.5 14.7395 16.5H9.39047C8.6172 16.5 7.97064 15.9122 7.89724 15.1424Z" stroke="black"/>
<path d="M13 11L17 11L16.6805 15.1534C16.6004 16.1954 15.7315 17 14.6864 17H13V11Z" fill="black"/>
<path d="M6.5 7.5H17.5V10C17.5 10.8284 16.8284 11.5 16 11.5H8C7.17157 11.5 6.5 10.8284 6.5 10V7.5Z" stroke="black"/>
<path d="M12 7H18V10C18 11.1046 17.1046 12 16 12H12V7Z" fill="black"/>
<rect x="5" y="7" width="14" height="1" rx="0.5" fill="black"/>
</svg>
