<svg width="24" height="24" viewBox="0 0 24 24" fill="none" xmlns="http://www.w3.org/2000/svg">
<path fill-rule="evenodd" clip-rule="evenodd" d="M19 11H13V17H18C19.1046 17 20 16.1046 20 15V12C20 11.4477 19.5523 11 19 11ZM18 12H15L15.2221 13.1843C15.3107 13.6573 15.7237 14 16.2049 14H16.7951C17.2763 14 17.6893 13.6573 17.7779 13.1843L18 12Z" fill="black"/>
<path fill-rule="evenodd" clip-rule="evenodd" d="M10.7442 8H5V15C5 15.5523 5.44772 16 6 16H13V11.3085L10.7442 8ZM5 7C4.44772 7 4 7.44772 4 8V15C4 16.1046 4.89543 17 6 17H13H14V16V11.3085C14 11.1075 13.9394 10.9112 13.8262 10.7451L11.5705 7.43666C11.3842 7.16346 11.0749 7 10.7442 7H5Z" fill="black"/>
<path fill-rule="evenodd" clip-rule="evenodd" d="M16.8698 8H5V15C5 15.5523 5.44772 16 6 16H18C18.5523 16 19 15.5523 19 15V11.2951L16.8698 8ZM5 7C4.44772 7 4 7.44772 4 8V15C4 16.1046 4.89543 17 6 17H18C19.1046 17 20 16.1046 20 15V11.2951C20 11.1025 19.9444 10.9139 19.8398 10.7522L17.7096 7.4571C17.5254 7.17211 17.2092 7 16.8698 7H5Z" fill="black"/>
</svg>
