<svg width="27" height="27" viewBox="0 0 27 27" fill="none" xmlns="http://www.w3.org/2000/svg">
<path fill-rule="evenodd" clip-rule="evenodd" d="M21.8746 8.37891H14.5291V19.6289H20.7496C21.9923 19.6289 22.9996 18.6215 22.9996 17.3789V9.50391C22.9996 8.88259 22.496 8.37891 21.8746 8.37891ZM20.3821 9.00293H16.1468V10.1279C16.1468 10.7493 16.6505 11.2529 17.2718 11.2529H19.2571C19.8784 11.2529 20.3821 10.7493 20.3821 10.1279V9.00293Z" fill="#0A0F1B"/>
<path fill-rule="evenodd" clip-rule="evenodd" d="M14.463 9.50391H6.12476V17.3789C6.12476 18.0002 6.62844 18.5039 7.24976 18.5039H14.463V9.50391ZM6.12476 8.37891C5.50344 8.37891 4.99976 8.88259 4.99976 9.50391V17.3789C4.99976 18.6215 6.00712 19.6289 7.24976 19.6289H14.463H15.588V18.5039V9.50391V8.37891H14.463H6.12476Z" fill="#0A0F1B"/>
</svg>
