<svg width="27" height="27" viewBox="0 0 27 27" fill="none" xmlns="http://www.w3.org/2000/svg">
<path d="M16.25 15.1289H20.75C21.9926 15.1289 23 16.1363 23 17.3789V18.5039C23 19.7465 21.9926 20.7539 20.75 20.7539H16.25V15.1289Z" fill="#0A0F1B"/>
<path d="M7.25 15.6914H20.75C21.682 15.6914 22.4375 16.4469 22.4375 17.3789V18.5039C22.4375 19.4359 21.682 20.1914 20.75 20.1914H7.25C6.31802 20.1914 5.5625 19.4359 5.5625 18.5039V17.3789C5.5625 16.4469 6.31802 15.6914 7.25 15.6914Z" stroke="#0A0F1B" stroke-width="1.125"/>
<path d="M13.5177 7.81641H14.4823C15.3533 7.81641 16.0812 8.47924 16.1625 9.34639L16.7573 15.6914H11.2427L11.8375 9.34639C11.9188 8.47924 12.6467 7.81641 13.5177 7.81641Z" stroke="#0A0F1B" stroke-width="1.125"/>
<path d="M14 8.15111C14 7.6556 14.4017 7.25391 14.8972 7.25391V7.25391C15.8233 7.25391 16.5973 7.95873 16.6838 8.88082L17.375 16.2539H14V8.15111Z" fill="#0A0F1B"/>
</svg>
