<svg width="27" height="27" viewBox="0 0 27 27" fill="none" xmlns="http://www.w3.org/2000/svg">
<g clip-path="url(#clip0_838_8028)">
<path d="M8.8844 17.0352L8.49369 12.9375H18.5253L18.266 16.983C18.209 17.8712 17.472 18.5625 16.5819 18.5625H10.5643C9.69435 18.5625 8.96697 17.9012 8.8844 17.0352Z" stroke="#0A0F1B" stroke-width="1.125"/>
<path d="M14.625 12.375L19.125 12.375L18.7656 17.0476C18.6754 18.2198 17.6979 19.125 16.5222 19.125H14.625V12.375Z" fill="#0A0F1B"/>
<path d="M7.3125 8.4375H19.6875V11.25C19.6875 12.182 18.932 12.9375 18 12.9375H9C8.06802 12.9375 7.3125 12.182 7.3125 11.25V8.4375Z" stroke="#0A0F1B" stroke-width="1.125"/>
<path d="M13.5 7.875H20.25V11.25C20.25 12.4926 19.2426 13.5 18 13.5H13.5V7.875Z" fill="#0A0F1B"/>
<rect x="5.625" y="7.875" width="15.75" height="1.125" rx="0.5625" fill="#0A0F1B"/>
</g>
<defs>
<clipPath id="clip0_838_8028">
<rect width="27" height="27" fill="white"/>
</clipPath>
</defs>
</svg>
