<svg width="27" height="27" viewBox="0 0 27 27" fill="none" xmlns="http://www.w3.org/2000/svg">
<g clip-path="url(#clip0_838_8131)">
<path fill-rule="evenodd" clip-rule="evenodd" d="M13.0105 10.625C12.4489 10.625 11.9734 11.0391 11.8962 11.5952L10.8024 19.4702C10.7085 20.1466 11.2338 20.75 11.9167 20.75H19.2906C20.6563 20.75 21.707 19.5432 21.5192 18.1905L20.7379 12.5655C20.5834 11.4531 19.6323 10.625 18.5093 10.625H13.0105ZM14.6178 15.138C14.1041 16.1653 14.8512 17.374 15.9998 17.374C17.1484 17.374 17.8954 16.1653 17.3817 15.138L16.5899 13.5544C16.3468 13.068 15.6528 13.068 15.4096 13.5544L14.6178 15.138Z" fill="white"/>
<path d="M9.62682 11.1875H18.3727C19.2045 11.1875 19.9123 11.7937 20.0401 12.6156L20.9151 18.2406C21.0743 19.2637 20.2831 20.1875 19.2477 20.1875H8.75182C7.71643 20.1875 6.92522 19.2637 7.08437 18.2406L7.95937 12.6156C8.08723 11.7937 8.79498 11.1875 9.62682 11.1875Z" stroke="white" stroke-width="1.125"/>
<path fill-rule="evenodd" clip-rule="evenodd" d="M7.875 6.75H13.5H19.125H20.25C20.25 7.14446 20.1823 7.52312 20.058 7.875C19.5946 9.18584 18.3445 10.125 16.875 10.125L13.5 10.125L10.125 10.125C8.6555 10.125 7.40536 9.18584 6.94204 7.875C6.81767 7.52312 6.75 7.14446 6.75 6.75H7.875ZM13.5 7.875V9H10.125C9.29218 9 8.56505 8.54753 8.17601 7.875H13.5Z" fill="white"/>
</g>
<defs>
<clipPath id="clip0_838_8131">
<rect width="27" height="27" fill="white"/>
</clipPath>
</defs>
</svg>
