<svg width="27" height="27" viewBox="0 0 27 27" fill="none" xmlns="http://www.w3.org/2000/svg">
<g clip-path="url(#clip0_838_8129)">
<path fill-rule="evenodd" clip-rule="evenodd" d="M21.875 12.875H15.125V19.625H20.75C21.9926 19.625 23 18.6176 23 17.375V14C23 13.3787 22.4963 12.875 21.875 12.875ZM20.2501 13.499H16.8751L17.1249 14.8313C17.2247 15.3634 17.6893 15.749 18.2307 15.749H18.8946C19.4359 15.749 19.9005 15.3634 20.0003 14.8313L20.2501 13.499Z" fill="white"/>
<path fill-rule="evenodd" clip-rule="evenodd" d="M12.5873 9.5H6.125V17.375C6.125 17.9963 6.62868 18.5 7.25 18.5H15.125V13.222L12.5873 9.5ZM6.125 8.375C5.50368 8.375 5 8.87868 5 9.5V17.375C5 18.6176 6.00736 19.625 7.25 19.625H15.125H16.25V18.5V13.222C16.25 12.9959 16.1819 12.7751 16.0545 12.5883L13.5168 8.86625C13.3072 8.55889 12.9593 8.375 12.5873 8.375H6.125Z" fill="white"/>
<path fill-rule="evenodd" clip-rule="evenodd" d="M19.4786 9.5H6.125V17.375C6.125 17.9963 6.62868 18.5 7.25 18.5H20.75C21.3713 18.5 21.875 17.9963 21.875 17.375V13.207L19.4786 9.5ZM6.125 8.375C5.50368 8.375 5 8.87868 5 9.5V17.375C5 18.6176 6.00736 19.625 7.25 19.625H20.75C21.9926 19.625 23 18.6176 23 17.375V13.207C23 12.9903 22.9374 12.7782 22.8198 12.5962L20.4233 8.88924C20.2161 8.56862 19.8604 8.375 19.4786 8.375H6.125Z" fill="white"/>
</g>
<defs>
<clipPath id="clip0_838_8129">
<rect width="27" height="27" fill="white"/>
</clipPath>
</defs>
</svg>
