<svg width="32" height="32" viewBox="0 0 32 32" fill="none" xmlns="http://www.w3.org/2000/svg">
<mask id="path-1-inside-1_456_8124" fill="white">
<path fill-rule="evenodd" clip-rule="evenodd" d="M14.5332 5C14.0229 5 13.5944 5.38425 13.5391 5.89155L12.7636 13H11C9.34315 13 8 14.3431 8 16V18H7C5.34315 18 4 19.3431 4 21V25C4 26.6569 5.34315 28 7 28H26C27.6569 28 29 26.6569 29 25V21C29 19.3431 27.6569 18 26 18H25V16C25 14.3431 23.6569 13 22 13H20.2364L19.4609 5.89155C19.4056 5.38425 18.9771 5 18.4668 5H14.5332Z"/>
</mask>
<path d="M13.5391 5.89155L15.5273 6.10845L15.5273 6.10845L13.5391 5.89155ZM12.7636 13V15H14.5573L14.7518 13.2169L12.7636 13ZM8 18V20H10V18H8ZM25 18H23V20H25V18ZM20.2364 13L18.2482 13.2169L18.4427 15H20.2364V13ZM19.4609 5.89155L21.4491 5.67466L21.4491 5.67466L19.4609 5.89155ZM15.5273 6.10845C15.472 6.61575 15.0435 7 14.5332 7V3C13.0023 3 11.7169 4.15275 11.5509 5.67466L15.5273 6.10845ZM14.7518 13.2169L15.5273 6.10845L11.5509 5.67466L10.7754 12.7831L14.7518 13.2169ZM12.7636 11H11V15H12.7636V11ZM11 11C8.23858 11 6 13.2386 6 16H10C10 15.4477 10.4477 15 11 15V11ZM6 16V18H10V16H6ZM8 16H7V20H8V16ZM7 16C4.23858 16 2 18.2386 2 21H6C6 20.4477 6.44772 20 7 20V16ZM2 21V25H6V21H2ZM2 25C2 27.7614 4.23858 30 7 30V26C6.44772 26 6 25.5523 6 25H2ZM7 30H26V26H7V30ZM26 30C28.7614 30 31 27.7614 31 25H27C27 25.5523 26.5523 26 26 26V30ZM31 25V21H27V25H31ZM31 21C31 18.2386 28.7614 16 26 16V20C26.5523 20 27 20.4477 27 21H31ZM26 16H25V20H26V16ZM27 18V16H23V18H27ZM27 16C27 13.2386 24.7614 11 22 11V15C22.5523 15 23 15.4477 23 16H27ZM22 11H20.2364V15H22V11ZM17.4727 6.10845L18.2482 13.2169L22.2246 12.7831L21.4491 5.67466L17.4727 6.10845ZM18.4668 7C17.9565 7 17.528 6.61575 17.4727 6.10845L21.4491 5.67466C21.2831 4.15275 19.9977 3 18.4668 3V7ZM14.5332 7H18.4668V3H14.5332V7Z" fill="black" mask="url(#path-1-inside-1_456_8124)"/>
<mask id="path-3-inside-2_456_8124" fill="white">
<path d="M8 19C8 18.4477 8.44772 18 9 18H24C24.5523 18 25 18.4477 25 19V19C25 19.5523 24.5523 20 24 20H9C8.44772 20 8 19.5523 8 19V19Z"/>
</mask>
<path d="M9 20H24V16H9V20ZM24 18H9V22H24V18ZM9 18C9.55228 18 10 18.4477 10 19H6C6 20.6569 7.34315 22 9 22V18ZM23 19C23 18.4477 23.4477 18 24 18V22C25.6569 22 27 20.6569 27 19H23ZM24 20C23.4477 20 23 19.5523 23 19H27C27 17.3431 25.6569 16 24 16V20ZM9 16C7.34315 16 6 17.3431 6 19H10C10 19.5523 9.55228 20 9 20V16Z" fill="black" mask="url(#path-3-inside-2_456_8124)"/>
</svg>
