<svg width="22" height="24" viewBox="0 0 22 24" fill="none" xmlns="http://www.w3.org/2000/svg">
<path d="M7.25954 22.9355C8.59287 23.7074 10.2616 22.7453 10.2616 21.2046V14.484C10.2616 13.7704 9.88136 13.1108 9.26382 12.7532L3.33574 9.3204C2.00241 8.5483 0.333496 9.5104 0.333496 11.0512V17.7727C0.333496 18.4864 0.713803 19.146 1.33146 19.5036L7.25954 22.9355Z" fill="#141414"/>
<path d="M10.0244 11.4388C10.6436 11.7968 11.4069 11.7968 12.0262 11.4388L17.843 8.07643C19.1752 7.30635 19.1751 5.3832 17.8428 4.61327L12.026 1.25176C11.4068 0.893945 10.6437 0.893945 10.0246 1.25176L4.20779 4.61327C2.87549 5.3832 2.87538 7.30635 4.20759 8.07643L10.0244 11.4388Z" fill="#141414"/>
<path d="M11.789 21.2046C11.789 22.7453 13.4577 23.7074 14.791 22.9355L20.7191 19.5036C21.3368 19.146 21.7171 18.4864 21.7171 17.7727V11.0511C21.7171 9.5104 20.0482 8.54829 18.7148 9.3204L12.7867 12.7532C12.1692 13.1108 11.789 13.7704 11.789 14.484V21.2046Z" fill="#141414"/>
</svg>
