<svg width="32" height="32" viewBox="0 0 32 32" fill="none" xmlns="http://www.w3.org/2000/svg">
<path fill-rule="evenodd" clip-rule="evenodd" d="M2 6C2 5.44772 2.44772 5 3 5H6H10.0222H21.9779H26H29C29.5523 5 30 5.44772 30 6C30 6.55228 29.5523 7 29 7H28L27.9999 11.3461C27.9999 12.9747 27.0266 14.376 25.6299 15L25.2282 22.2123C25.1154 24.3359 23.3605 26 21.2339 26H10.7661C8.63943 26 6.88457 24.3359 6.77172 22.2123L6.37007 15C4.97331 14.3761 3.99993 12.9747 3.99993 11.3461L4 7H3C2.44771 7 2 6.55228 2 6ZM6 7V9L5.99993 11.3461C5.99993 12.4506 6.89536 13.3461 7.99993 13.3461H8.285L8.7689 22.1061C8.82532 23.168 9.70275 24 10.7661 24H21.2339C22.2972 24 23.1746 23.168 23.2311 22.1061L23.715 13.3461H23.9999C25.1045 13.3461 25.9999 12.4506 25.9999 11.3461L26 9V7H24H21.9779H10.0222H8H6Z" fill="black"/>
</svg>
