<svg width="32" height="32" viewBox="0 0 32 32" fill="none" xmlns="http://www.w3.org/2000/svg">
<path fill-rule="evenodd" clip-rule="evenodd" d="M3 5C2.44772 5 2 5.44772 2 6C2 6.55228 2.44771 7 3 7H5H27H29C29.5523 7 30 6.55228 30 6C30 5.44772 29.5523 5 29 5H3ZM27 8H5V12C5 13.4275 5.9971 14.6222 7.33284 14.9255L7.3368 15H24.6633L24.6672 14.9255C26.0029 14.6222 27 13.4275 27 12V8ZM24.6101 16H7.38994L7.77038 23.1592C7.85501 24.7519 9.17116 26 10.7661 26H21.2339C22.8289 26 24.1451 24.7519 24.2297 23.1592L24.6101 16Z" fill="black"/>
</svg>
