<svg width="33" height="32" viewBox="0 0 33 32" fill="none" xmlns="http://www.w3.org/2000/svg">
<path d="M12.8667 21.078L16.3333 17.6113L19.8 21.078L20.744 20.134L17.2773 16.6673L20.744 13.2006L19.8 12.2566L16.3333 15.7233L12.8667 12.2566L11.9227 13.2006L15.3893 16.6673L11.9227 20.134L12.8667 21.078ZM10.488 26.6673C9.87378 26.6673 9.36133 26.462 8.95067 26.0513C8.54 25.6406 8.33422 25.1277 8.33333 24.5126V8.00062H7V6.66729H12.3333V5.64062H20.3333V6.66729H25.6667V8.00062H24.3333V24.514C24.3333 25.1273 24.128 25.6397 23.7173 26.0513C23.3067 26.4628 22.7938 26.6682 22.1787 26.6673H10.488Z" fill="black"/>
</svg>
