<svg width="32" height="32" viewBox="0 0 32 32" fill="none" xmlns="http://www.w3.org/2000/svg">
<path d="M13.3931 24C12.5016 24 11.6563 23.6035 11.0864 22.9181L6.93491 17.9253C6.00787 16.8104 6.01089 15.1921 6.94209 14.0806L11.1374 9.07335C11.7074 8.39301 12.5494 8 13.4369 8H23.6673C25.3242 8 26.6673 9.34315 26.6673 11V21C26.6673 22.6569 25.3242 24 23.6673 24H13.3931ZM14.7393 20.4107L18.206 16.944L21.6727 20.4107L22.6153 19.4667L19.1487 16L22.6153 12.5333L21.6727 11.5893L18.206 15.056L14.7393 11.5893L13.7953 12.5333L17.262 16L13.7953 19.4667L14.7393 20.4107Z" fill="black"/>
</svg>
